{"asset":{"generator":"Modov11.2","version":"2.0"},"scene":0,"scenes":[{"nodes":[0,1,2,3]}],"nodes":[{"name":"Mesh","matrix":[1.0,0.0,0.0,0.0,0.0,1.0,0.0,0.0,0.0,0.0,1.0,0.0,0.0,-0.05999999865889549,0.0,1.0],"mesh":0},{"name":"Mesh (2)","mesh":1},{"name":"Camera","matrix":[0.9880115389823914,0.0,0.15438009798526765,0.0,0.031013434752821924,0.9796137809753418,-0.1984817385673523,0.0,-0.15123286843299867,0.20089010894298554,0.9678696990013123,0.0,-3.701413869857788,8.376741409301758,21.28856086730957,1.0],"camera":0},{"name":"Texture Group"}],"meshes":[{"primitives":[{"indices":1,"mode":4,"material":1,"attributes":{"POSITION":0,"NORMAL":2,"TEXCOORD_0":3,"TEXCOORD_1":4}}]},{"primitives":[{"indices":6,"mode":4,"material":2,"attributes":{"POSITION":5,"NORMAL":7,"TEXCOORD_0":8}}]}],"buffers":[{"byteLength":943628,"uri":"MODEL1.bin"}],"bufferViews":[{"buffer":0,"byteLength":166428},{"buffer":0,"byteLength":252912,"byteOffset":166428},{"buffer":0,"byteLength":166428,"byteOffset":419340},{"buffer":0,"byteLength":110952,"byteOffset":585768},{"buffer":0,"byteLength":110952,"byteOffset":696720},{"buffer":0,"byteLength":38280,"byteOffset":807672},{"buffer":0,"byteLength":33876,"byteOffset":845952},{"buffer":0,"byteLength":38280,"byteOffset":879828},{"buffer":0,"byteLength":25520,"byteOffset":918108}],"accessors":[{"bufferView":0,"type":"VEC3","componentType":5126,"count":13869,"min":[-1.5509181022644044,0.0292288176715374,-0.5774480104446411],"max":[1.5509181022644044,8.41204833984375,0.994818925857544]},{"bufferView":1,"type":"SCALAR","componentType":5125,"count":63228},{"bufferView":2,"type":"VEC3","componentType":5126,"count":13869},{"bufferView":3,"type":"VEC2","componentType":5126,"count":13869},{"bufferView":4,"type":"VEC2","componentType":5126,"count":13869},{"bufferView":5,"type":"VEC3","componentType":5126,"count":3190,"min":[-1.6723783016204835,-0.08508114516735077,-0.6858593225479126],"max":[1.6723783016204835,7.268309116363525,1.0781056880950928]},{"bufferView":6,"type":"SCALAR","componentType":5125,"count":8469},{"bufferView":7,"type":"VEC3","componentType":5126,"count":3190},{"bufferView":8,"type":"VEC2","componentType":5126,"count":3190}],"materials":[{"pbrMetallicRoughness":{"metallicFactor":0.5,"roughnessFactor":0.5}},{"name":"skin material","emissiveFactor":[0.0,0.0,0.0],"alphaMode":"OPAQUE","doubleSided":false,"pbrMetallicRoughness":{"baseColorFactor":[1.0,0.8688995242118836,0.7484140992164612,1.0],"metallicFactor":1.0,"roughnessFactor":1.0}},{"name":"product1","emissiveFactor":[0.0,0.0,0.0],"alphaMode":"OPAQUE","doubleSided":false,"pbrMetallicRoughness":{"baseColorFactor":[1.0,0.2158605456352234,0.2158605456352234,1.0],"metallicFactor":1.0,"roughnessFactor":1.0}}],"cameras":[{"name":"Camera","type":"perspective","perspective":{"znear":0.01,"yfov":0.8726}}]}