{"asset":{"generator":"Modov11.2","version":"2.0"},"scene":0,"scenes":[{"nodes":[0,1,2,3]}],"nodes":[{"name":"Mesh","mesh":0},{"name":"Mesh (2)","mesh":1},{"name":"Camera","matrix":[0.9989876747131348,0.0,0.044984813779592517,0.0,0.004816113505512476,0.9942524433135986,-0.1069524958729744,0.0,-0.04472626373171806,0.10706087946891785,0.9932459592819214,0.0,-0.9704641103744507,6.456475257873535,21.704069137573243,1.0],"camera":0},{"name":"Texture Group"}],"meshes":[{"primitives":[{"indices":1,"mode":4,"material":1,"attributes":{"POSITION":0,"NORMAL":2,"TEXCOORD_0":3,"TEXCOORD_1":4}}]},{"primitives":[{"indices":6,"mode":4,"material":2,"attributes":{"POSITION":5,"NORMAL":7,"TEXCOORD_0":8}}]}],"buffers":[{"byteLength":843272,"uri":"MODEL3.bin"}],"bufferViews":[{"buffer":0,"byteLength":166428},{"buffer":0,"byteLength":252912,"byteOffset":166428},{"buffer":0,"byteLength":166428,"byteOffset":419340},{"buffer":0,"byteLength":110952,"byteOffset":585768},{"buffer":0,"byteLength":110952,"byteOffset":696720},{"buffer":0,"byteLength":10056,"byteOffset":807672},{"buffer":0,"byteLength":8784,"byteOffset":817728},{"buffer":0,"byteLength":10056,"byteOffset":826512},{"buffer":0,"byteLength":6704,"byteOffset":836568}],"accessors":[{"bufferView":0,"type":"VEC3","componentType":5126,"count":13869,"min":[-1.5509181022644044,-0.030771182850003244,-0.5774480104446411],"max":[1.5509181022644044,8.35204792022705,0.994818925857544]},{"bufferView":1,"type":"SCALAR","componentType":5125,"count":63228},{"bufferView":2,"type":"VEC3","componentType":5126,"count":13869},{"bufferView":3,"type":"VEC2","componentType":5126,"count":13869},{"bufferView":4,"type":"VEC2","componentType":5126,"count":13869},{"bufferView":5,"type":"VEC3","componentType":5126,"count":838,"min":[-1.0254523754119874,-0.08508114516735077,-0.772589921951294],"max":[1.0254523754119874,7.149582862854004,1.0781056880950928]},{"bufferView":6,"type":"SCALAR","componentType":5125,"count":2196},{"bufferView":7,"type":"VEC3","componentType":5126,"count":838},{"bufferView":8,"type":"VEC2","componentType":5126,"count":838}],"materials":[{"pbrMetallicRoughness":{"metallicFactor":0.5,"roughnessFactor":0.5}},{"name":"skin material","emissiveFactor":[0.0,0.0,0.0],"alphaMode":"OPAQUE","doubleSided":false,"pbrMetallicRoughness":{"baseColorFactor":[1.0,0.8688995242118836,0.7484140992164612,1.0],"metallicFactor":1.0,"roughnessFactor":1.0}},{"name":"product3","emissiveFactor":[0.0,0.0,0.0],"alphaMode":"OPAQUE","doubleSided":false,"pbrMetallicRoughness":{"baseColorFactor":[0.40468794107437136,0.27227693796157839,1.0,1.0],"metallicFactor":1.0,"roughnessFactor":1.0}}],"cameras":[{"name":"Camera","type":"perspective","perspective":{"znear":0.01,"yfov":0.8726}}]}