{"asset":{"generator":"Modov11.2","version":"2.0"},"scene":0,"scenes":[{"nodes":[0,1,2,3]}],"nodes":[{"name":"Mesh","mesh":0},{"name":"Mesh (2)","mesh":1},{"name":"Camera","matrix":[1.0,0.0,0.0,0.0,0.0,0.9961947202682495,-0.08715574443340302,0.0,0.0,0.08715574443340302,0.9961947202682495,0.0,0.0,6.024576187133789,21.752084732055665,1.0],"camera":0},{"name":"Texture Group"}],"meshes":[{"primitives":[{"indices":1,"mode":4,"material":1,"attributes":{"POSITION":0,"NORMAL":2,"TEXCOORD_0":3,"TEXCOORD_1":4}}]},{"primitives":[{"indices":6,"mode":4,"material":2,"attributes":{"POSITION":5,"NORMAL":7,"TEXCOORD_0":8}}]}],"buffers":[{"byteLength":881752,"uri":"MODEL2.bin"}],"bufferViews":[{"buffer":0,"byteLength":166428},{"buffer":0,"byteLength":252912,"byteOffset":166428},{"buffer":0,"byteLength":166428,"byteOffset":419340},{"buffer":0,"byteLength":110952,"byteOffset":585768},{"buffer":0,"byteLength":110952,"byteOffset":696720},{"buffer":0,"byteLength":20004,"byteOffset":807672},{"buffer":0,"byteLength":20736,"byteOffset":827676},{"buffer":0,"byteLength":20004,"byteOffset":848412},{"buffer":0,"byteLength":13336,"byteOffset":868416}],"accessors":[{"bufferView":0,"type":"VEC3","componentType":5126,"count":13869,"min":[-1.5509181022644044,-0.030771182850003244,-0.5774480104446411],"max":[1.5509181022644044,8.35204792022705,0.994818925857544]},{"bufferView":1,"type":"SCALAR","componentType":5125,"count":63228},{"bufferView":2,"type":"VEC3","componentType":5126,"count":13869},{"bufferView":3,"type":"VEC2","componentType":5126,"count":13869},{"bufferView":4,"type":"VEC2","componentType":5126,"count":13869},{"bufferView":5,"type":"VEC3","componentType":5126,"count":1667,"min":[-1.169600248336792,-0.08508114516735077,-0.8045192360877991],"max":[1.169600248336792,7.465548515319824,1.0781056880950928]},{"bufferView":6,"type":"SCALAR","componentType":5125,"count":5184},{"bufferView":7,"type":"VEC3","componentType":5126,"count":1667},{"bufferView":8,"type":"VEC2","componentType":5126,"count":1667}],"materials":[{"pbrMetallicRoughness":{"metallicFactor":0.5,"roughnessFactor":0.5}},{"name":"skin material","emissiveFactor":[0.0,0.0,0.0],"alphaMode":"OPAQUE","doubleSided":false,"pbrMetallicRoughness":{"baseColorFactor":[1.0,0.8688995242118836,0.7484140992164612,1.0],"metallicFactor":1.0,"roughnessFactor":1.0}},{"name":"product2","emissiveFactor":[0.0,0.0,0.0],"alphaMode":"OPAQUE","doubleSided":false,"pbrMetallicRoughness":{"baseColorFactor":[0.2196178436279297,0.45336467027664187,0.5271152257919312,1.0],"metallicFactor":1.0,"roughnessFactor":1.0}}],"cameras":[{"name":"Camera","type":"perspective","perspective":{"znear":0.01,"yfov":0.8726}}]}