{"asset":{"generator":"Modov11.2","version":"2.0"},"scene":0,"scenes":[{"nodes":[0,1,2,3,4,5]}],"nodes":[{"name":"stage","matrix":[0.8299999833106995,0.0,0.0,0.0,0.0,0.8299999833106995,0.0,0.0,0.0,0.0,0.8299999833106995,0.0,0.0,0.0,0.0,1.0],"mesh":0},{"name":"Sphere","matrix":[1.0,0.0,0.0,0.0,0.0,1.0,0.0,0.0,0.0,0.0,1.0,0.0,5.050000190734863,9.300000190734864,0.800000011920929,1.0]},{"name":"Mesh","matrix":[1.0950000286102296,0.0,0.0,0.0,0.0,1.0950000286102296,0.0,0.0,0.0,0.0,1.0950000286102296,0.0,0.0,-0.5,0.0,1.0],"mesh":1},{"name":"Mesh (2)","mesh":2},{"name":"Camera","matrix":[1.0,0.0,-1.1175873421143123e-10,0.0,-5.034143935045421e-11,0.8928029537200928,-0.4504474699497223,0.0,9.977852571951829e-11,0.4504474699497223,0.8928029537200928,0.0,5.215803146362305,21.52994155883789,36.01582336425781,1.0],"camera":0},{"name":"Texture Group"}],"meshes":[{"primitives":[{"indices":1,"mode":4,"material":1,"attributes":{"POSITION":0,"NORMAL":2,"TEXCOORD_0":3}}]},{"primitives":[{"indices":5,"mode":4,"material":2,"attributes":{"POSITION":4,"NORMAL":6,"TEXCOORD_0":7}}]},{"primitives":[{"indices":9,"mode":4,"material":3,"attributes":{"POSITION":8,"NORMAL":10,"TEXCOORD_0":11}},{"indices":13,"mode":4,"material":4,"attributes":{"POSITION":12,"NORMAL":14,"TEXCOORD_0":15}},{"indices":17,"mode":4,"material":5,"attributes":{"POSITION":16,"NORMAL":18,"TEXCOORD_0":19}},{"indices":21,"mode":4,"material":6,"attributes":{"POSITION":20,"NORMAL":22,"TEXCOORD_0":23}}]}],"buffers":[{"byteLength":429520,"uri":"SCENE.bin"}],"bufferViews":[{"buffer":0,"byteLength":2352},{"buffer":0,"byteLength":2208,"byteOffset":2352},{"buffer":0,"byteLength":2352,"byteOffset":4560},{"buffer":0,"byteLength":1568,"byteOffset":6912},{"buffer":0,"byteLength":1176,"byteOffset":8480},{"buffer":0,"byteLength":1104,"byteOffset":9656},{"buffer":0,"byteLength":1176,"byteOffset":10760},{"buffer":0,"byteLength":784,"byteOffset":11936},{"buffer":0,"byteLength":15504,"byteOffset":12720},{"buffer":0,"byteLength":25344,"byteOffset":28224},{"buffer":0,"byteLength":15504,"byteOffset":53568},{"buffer":0,"byteLength":10336,"byteOffset":69072},{"buffer":0,"byteLength":46512,"byteOffset":79408},{"buffer":0,"byteLength":76032,"byteOffset":125920},{"buffer":0,"byteLength":46512,"byteOffset":201952},{"buffer":0,"byteLength":31008,"byteOffset":248464},{"buffer":0,"byteLength":31008,"byteOffset":279472},{"buffer":0,"byteLength":50688,"byteOffset":310480},{"buffer":0,"byteLength":31008,"byteOffset":361168},{"buffer":0,"byteLength":20672,"byteOffset":392176},{"buffer":0,"byteLength":3876,"byteOffset":412848},{"buffer":0,"byteLength":6336,"byteOffset":416724},{"buffer":0,"byteLength":3876,"byteOffset":423060},{"buffer":0,"byteLength":2584,"byteOffset":426936}],"accessors":[{"bufferView":0,"type":"VEC3","componentType":5126,"count":196,"min":[-9.820799827575684,0.010886013507843018,-9.820799827575684],"max":[9.820799827575684,3.118875741958618,9.820799827575684]},{"bufferView":1,"type":"SCALAR","componentType":5125,"count":552},{"bufferView":2,"type":"VEC3","componentType":5126,"count":196},{"bufferView":3,"type":"VEC2","componentType":5126,"count":196},{"bufferView":4,"type":"VEC3","componentType":5126,"count":98,"min":[-9.771696090698243,1.8787297010421754,-9.771696090698243],"max":[9.771696090698243,2.321270227432251,9.771696090698243]},{"bufferView":5,"type":"SCALAR","componentType":5125,"count":276},{"bufferView":6,"type":"VEC3","componentType":5126,"count":98},{"bufferView":7,"type":"VEC2","componentType":5126,"count":98},{"bufferView":8,"type":"VEC3","componentType":5126,"count":1292,"min":[-5.863389492034912,2.925013303756714,-4.689777374267578],"max":[5.6202521324157719,7.795353889465332,6.013514518737793]},{"bufferView":9,"type":"SCALAR","componentType":5125,"count":6336},{"bufferView":10,"type":"VEC3","componentType":5126,"count":1292},{"bufferView":11,"type":"VEC2","componentType":5126,"count":1292},{"bufferView":12,"type":"VEC3","componentType":5126,"count":3876,"min":[-7.309176445007324,2.999558448791504,-7.4430766105651859],"max":[9.045777320861817,8.677873611450196,9.845624923706055]},{"bufferView":13,"type":"SCALAR","componentType":5125,"count":19008},{"bufferView":14,"type":"VEC3","componentType":5126,"count":3876},{"bufferView":15,"type":"VEC2","componentType":5126,"count":3876},{"bufferView":16,"type":"VEC3","componentType":5126,"count":2584,"min":[-4.928215980529785,4.200859069824219,-7.685761451721191],"max":[8.19742202758789,8.70128059387207,8.67336654663086]},{"bufferView":17,"type":"SCALAR","componentType":5125,"count":12672},{"bufferView":18,"type":"VEC3","componentType":5126,"count":2584},{"bufferView":19,"type":"VEC2","componentType":5126,"count":2584},{"bufferView":20,"type":"VEC3","componentType":5126,"count":323,"min":[3.298342704772949,7.282444000244141,-3.554346799850464],"max":[3.422471284866333,7.406572341918945,-3.430217981338501]},{"bufferView":21,"type":"SCALAR","componentType":5125,"count":1584},{"bufferView":22,"type":"VEC3","componentType":5126,"count":323},{"bufferView":23,"type":"VEC2","componentType":5126,"count":323}],"materials":[{"pbrMetallicRoughness":{"metallicFactor":0.5,"roughnessFactor":0.5}},{"name":"scene","emissiveFactor":[0.0,0.0,0.0],"alphaMode":"OPAQUE","doubleSided":false,"pbrMetallicRoughness":{"baseColorFactor":[0.0,0.051269471645355228,0.2158605456352234,1.0],"metallicFactor":1.0,"roughnessFactor":1.0}},{"name":"stage","emissiveFactor":[0.0,0.0,0.0],"alphaMode":"OPAQUE","doubleSided":false,"pbrMetallicRoughness":{"baseColorFactor":[0.05149908736348152,0.09799475967884064,0.10759493708610535,1.0],"metallicFactor":1.0,"roughnessFactor":1.0}},{"name":"circle3","emissiveFactor":[0.0,0.0,0.0],"alphaMode":"OPAQUE","doubleSided":false,"pbrMetallicRoughness":{"baseColorFactor":[0.304987370967865,0.304987370967865,0.5972017645835877,1.0],"metallicFactor":1.0,"roughnessFactor":1.0}},{"name":"circle 1","emissiveFactor":[0.0,0.0,0.0],"alphaMode":"OPAQUE","doubleSided":false,"pbrMetallicRoughness":{"baseColorFactor":[0.08736183494329453,0.24205656349658967,0.2721518874168396,1.0],"metallicFactor":1.0,"roughnessFactor":1.0}},{"name":"circle2","emissiveFactor":[0.0,0.0,0.0],"alphaMode":"OPAQUE","doubleSided":false,"pbrMetallicRoughness":{"baseColorFactor":[1.0,0.7230552434921265,0.6038273572921753,1.0],"metallicFactor":1.0,"roughnessFactor":1.0}},{"name":"circle1","emissiveFactor":[0.0,0.0,0.0],"alphaMode":"OPAQUE","doubleSided":false,"pbrMetallicRoughness":{"baseColorFactor":[1.0,1.0,1.0,1.0],"metallicFactor":1.0,"roughnessFactor":1.0}}],"cameras":[{"name":"Camera","type":"perspective","perspective":{"znear":0.01,"yfov":0.8726}}]}